<svg width="60" height="63" viewBox="0 0 60 63" fill="none" xmlns="http://www.w3.org/2000/svg">
<path opacity="0.4" d="M13.3333 23L46.6667 23C54.0305 23 60 28.9695 60 36.3333V49.6667C60 57.0305 54.0305 63 46.6667 63H13.3333C5.96954 63 9.047e-07 57.0305 5.82819e-07 49.6667L0 36.3333C-3.21882e-07 28.9695 5.96953 23 13.3333 23Z" fill="#4666CA"/>
<path fill-rule="evenodd" clip-rule="evenodd" d="M18.2322 14.7678C17.2559 13.7915 17.2559 12.2085 18.2322 11.2322L28.2322 1.23224C29.2085 0.255928 30.7915 0.255927 31.7678 1.23224L41.7678 11.2322C42.7441 12.2085 42.7441 13.7915 41.7678 14.7678C40.7915 15.7441 39.2085 15.7441 38.2322 14.7678L32.5 9.03553L32.5 43C32.5 44.3807 31.3807 45.5 30 45.5C28.6193 45.5 27.5 44.3807 27.5 43L27.5 9.03553L21.7678 14.7678C20.7915 15.7441 19.2085 15.7441 18.2322 14.7678Z" fill="#4666CA"/>
</svg>
