<svg width="100" height="22" viewBox="0 0 100 22" fill="none" xmlns="http://www.w3.org/2000/svg">
<path d="M12.0092 6.58813L1.42773 5.7998L9.16644 13.7487L19.9848 15.5882L12.0092 6.58813Z" fill="url(#paint0_linear_976_428)"/>
<path d="M3.28369 14.9836L10.4611 4.57617L19.9851 5.41486L12.1865 17.4234L3.28369 14.9836Z" fill="url(#paint1_linear_976_428)"/>
<path d="M25.4121 12.8723H27.541V13.0757C27.5794 13.2371 27.6328 13.3945 27.7006 13.5457C27.7896 13.761 27.9165 13.9582 28.075 14.1279C28.3047 14.3354 28.5771 14.4888 28.8725 14.5768C29.2948 14.7194 29.738 14.7882 30.1831 14.7802C30.8648 14.8326 31.5462 14.6761 32.1387 14.3313C32.319 14.207 32.4659 14.0395 32.5664 13.8436C32.6669 13.6477 32.7177 13.4296 32.7143 13.209V13.0546C32.6846 12.845 32.5953 12.6486 32.4575 12.4892C32.3196 12.3299 32.1391 12.2144 31.9376 12.1568C31.3807 11.9295 30.7985 11.7716 30.2039 11.6868C29.5104 11.5816 28.8725 11.4553 28.2067 11.301C27.5752 11.1561 26.989 10.8548 26.5008 10.4242C26.2666 10.219 26.0795 9.96453 25.9526 9.67861C25.8256 9.39269 25.7618 9.08214 25.7658 8.76874V8.71964C25.7979 8.34357 25.9062 7.97828 26.084 7.6464C26.2617 7.31451 26.5052 7.02323 26.799 6.79063C27.4787 6.13128 28.5743 5.80161 30.0861 5.80161C30.792 5.78854 31.4953 5.89525 32.1664 6.11722C32.6632 6.26346 33.1191 6.52533 33.4979 6.88184C33.7667 7.13886 34 7.43142 34.1913 7.7516C34.3169 7.98164 34.397 8.23416 34.4271 8.49517L34.4756 8.81085H32.3467C32.3528 8.75725 32.3528 8.70308 32.3467 8.64948C32.3075 8.52193 32.249 8.40124 32.1733 8.29175C32.0838 8.11332 31.9614 7.9538 31.8127 7.82176C31.6076 7.65674 31.3718 7.53505 31.1193 7.46404C30.7841 7.35105 30.4324 7.29652 30.0791 7.30266C29.4743 7.26355 28.8714 7.40501 28.3455 7.70956C28.166 7.80941 28.0157 7.95537 27.9098 8.13266C27.8039 8.31003 27.746 8.51251 27.7422 8.71964V8.81085C27.7422 9.16858 27.9988 9.44915 28.4772 9.65963C29.0322 9.89152 29.6115 10.0586 30.2039 10.1576C30.8835 10.2652 31.5561 10.3985 32.2219 10.5574C32.8673 10.7045 33.4687 11.0051 33.9764 11.4343C34.2222 11.6348 34.4211 11.8878 34.559 12.1753C34.6969 12.4627 34.7702 12.7773 34.7738 13.0968V13.2721C34.7798 13.6954 34.689 14.1145 34.5086 14.4965C34.3282 14.8786 34.0629 15.2133 33.7336 15.4747C33.0401 16.0593 31.8636 16.3515 30.2039 16.3515C29.4195 16.368 28.6383 16.247 27.8947 15.9937C27.373 15.8214 26.898 15.5285 26.5078 15.138C26.2401 14.8209 26.0075 14.4752 25.8144 14.1068C25.6615 13.8367 25.5625 13.5388 25.5231 13.23L25.4121 12.8723Z" fill="black"/>
<path d="M35.4381 11.1466C35.3805 9.7408 35.8655 8.3675 36.7904 7.3166C37.291 6.79729 37.8964 6.39317 38.5653 6.13173C39.2342 5.87029 39.9509 5.75759 40.6667 5.80149C41.324 5.78493 41.9766 5.91747 42.5766 6.1894C43.1765 6.46126 43.7088 6.86566 44.1341 7.37277V6.02596H46.0203V20.2375H44.03V14.8222C43.6352 15.2869 43.1487 15.6629 42.6017 15.9262C42.0548 16.1895 41.4595 16.3344 40.854 16.3514H40.5628C39.8774 16.3842 39.1925 16.2768 38.5492 16.0358C37.9057 15.7948 37.317 15.4249 36.8181 14.9485C36.3482 14.4405 35.984 13.8421 35.747 13.1891C35.5099 12.5361 35.4049 11.8415 35.4381 11.1466ZM37.4561 11.1466C37.4333 12.0998 37.7763 13.0249 38.4131 13.7279C38.7237 14.073 39.1047 14.3457 39.5298 14.5274C39.9547 14.709 40.4137 14.7953 40.8748 14.7801C41.3207 14.8027 41.7655 14.7193 42.1738 14.5366C42.582 14.3539 42.9423 14.077 43.2256 13.7279C43.8159 12.9759 44.1231 12.0362 44.0925 11.0765C44.1403 10.1124 43.8423 9.16339 43.2534 8.40391C42.9616 8.05903 42.5953 7.78674 42.1829 7.60795C41.7705 7.42909 41.3229 7.34865 40.8748 7.37277C40.4067 7.35143 39.9398 7.43458 39.5071 7.61644C39.0745 7.7983 38.6867 8.07437 38.3714 8.42496C37.7385 9.18323 37.4116 10.1552 37.4561 11.1466Z" fill="black"/>
<path d="M47.3174 11.6801V6.02637H49.2729V11.6801C49.2729 13.6722 50.0866 14.6683 51.7139 14.6683C53.6371 14.6683 54.5987 13.5226 54.5987 11.2312V6.02637H56.5473V16.1274H54.6611V14.4649C54.3879 15.0146 53.9735 15.4797 53.4614 15.8117C52.9253 16.1769 52.2908 16.3656 51.6445 16.3518C48.7598 16.3518 47.3174 14.7946 47.3174 11.6801Z" fill="black"/>
<path d="M58.0677 12.3816C58.2401 12.0465 58.4757 11.7486 58.7612 11.5048C59.074 11.2324 59.4215 11.0036 59.7944 10.8244C60.1828 10.6451 60.5837 10.495 60.9941 10.3755C61.4185 10.2647 61.8493 10.1803 62.2839 10.123C62.7832 10.0178 63.1785 9.95459 63.4558 9.91954L64.5029 9.80735L65.1964 9.74418C65.1964 8.18695 64.4336 7.40834 62.908 7.40834C62.505 7.39999 62.1031 7.45195 61.7152 7.56265C61.438 7.63253 61.1797 7.76435 60.9594 7.94842C60.8213 8.08054 60.7022 8.2317 60.6057 8.39736C60.5279 8.51149 60.4737 8.64032 60.4462 8.77614V8.93752H58.2965C58.2909 8.82532 58.2909 8.71298 58.2965 8.60078C58.3688 8.34376 58.4664 8.09467 58.5878 7.85728C58.7496 7.49727 58.986 7.17666 59.2812 6.91729C59.6927 6.58269 60.1634 6.33039 60.6681 6.17379C61.3933 5.93576 62.1527 5.82192 62.9149 5.83705C63.4844 5.78838 64.0576 5.85447 64.6016 6.03148C65.1456 6.20848 65.6495 6.49283 66.084 6.86819C66.4424 7.23619 66.7206 7.67592 66.9009 8.15912C67.0812 8.64232 67.1597 9.15835 67.1311 9.67402V13.8828C67.1148 14.0499 67.1539 14.2176 67.2421 14.3598C67.3732 14.4469 67.5297 14.4864 67.6863 14.472H68.3793V16.1976H67.6235C67.0447 16.234 66.4659 16.1256 65.9384 15.8819C65.7467 15.7499 65.5854 15.5775 65.4657 15.3765C65.346 15.1755 65.2707 14.9507 65.2449 14.7176C64.7808 15.2965 64.1855 15.7537 63.5094 16.0505C62.8334 16.3472 62.0966 16.4746 61.3616 16.4221C60.4014 16.4678 59.4567 16.1643 58.6987 15.5663C58.3977 15.3221 58.1565 15.0108 57.9942 14.6566C57.8318 14.3025 57.7525 13.9152 57.7626 13.525C57.7655 13.1237 57.8706 12.7299 58.0677 12.3816ZM60.3283 14.444C60.7037 14.6672 61.1345 14.7767 61.5696 14.7596C62.4328 14.7663 63.2798 14.5229 64.0106 14.0581C64.354 13.8914 64.6455 13.6325 64.8533 13.3096C65.0612 12.9868 65.1775 12.6125 65.1895 12.2273V11.2312C62.9982 11.4277 61.528 11.7597 60.7791 12.2273C60.5219 12.3427 60.3012 12.5275 60.1409 12.7613C59.9807 12.9952 59.8872 13.2691 59.8707 13.5531C59.8649 13.7288 59.904 13.9031 59.9841 14.0591C60.0644 14.2152 60.1828 14.3477 60.3283 14.444Z" fill="black"/>
<path d="M71.299 6.02619V7.57643C71.5588 7.0888 71.9485 6.68483 72.4246 6.41075C72.8999 6.13661 73.4423 6.00335 73.9898 6.02619H75.1617V7.75179H74.0519C72.942 7.75179 72.2211 8.0113 71.8814 8.51634C71.5417 9.02138 71.3818 10.0876 71.3682 11.708V16.1272H69.4126V6.02619H71.299Z" fill="black"/>
<path d="M75.2714 11.0976C75.2078 9.69254 75.6846 8.31724 76.6025 7.26063C77.0999 6.75859 77.6973 6.36889 78.3547 6.11744C79.012 5.86592 79.7151 5.75829 80.4167 5.80161C81.0812 5.75544 81.7478 5.85714 82.3702 6.09946C82.9918 6.34184 83.5535 6.71905 84.0153 7.20453C84.8761 8.1827 85.3279 9.45979 85.2779 10.7679C85.2765 11.1056 85.2558 11.4428 85.2151 11.778H77.2891C77.3069 12.5955 77.6317 13.3755 78.1977 13.9596C78.5003 14.2384 78.855 14.4533 79.2404 14.5918C79.6266 14.7303 80.0355 14.7896 80.4445 14.7663C80.8128 14.7703 81.1789 14.7085 81.5258 14.5838C81.8035 14.4973 82.0561 14.3432 82.261 14.135C82.4273 13.9733 82.5757 13.7947 82.7049 13.6018C82.802 13.4618 82.8833 13.3112 82.9476 13.1529L82.9961 12.9705H85.0766C85.0567 13.0921 85.026 13.2117 84.9867 13.3282C84.9039 13.6117 84.7854 13.8829 84.6327 14.135C84.445 14.5244 84.1888 14.8761 83.8768 15.1731C83.4743 15.536 83.0025 15.8106 82.4901 15.9798C81.8249 16.2289 81.119 16.3503 80.4095 16.3375C79.7193 16.3749 79.0292 16.2698 78.3811 16.0286C77.7323 15.7875 77.1392 15.4152 76.6374 14.9346C76.1692 14.4185 75.8081 13.8136 75.5733 13.1549C75.3384 12.4962 75.2364 11.7968 75.2714 11.0976ZM77.2891 10.1787H83.2595V9.95426C83.2623 9.61139 83.1924 9.27201 83.0553 8.95868C82.9176 8.64535 82.7156 8.36535 82.4622 8.13745C82.1917 7.88222 81.8748 7.6833 81.5287 7.55212C81.1825 7.42093 80.8135 7.36005 80.4445 7.3729C79.6587 7.32287 78.885 7.59016 78.2933 8.11611C77.7016 8.64206 77.3405 9.38385 77.2891 10.1787Z" fill="black"/>
<path d="M86.4865 1.70508H88.435V13.8122C88.4222 13.979 88.4607 14.1458 88.5456 14.2892C88.677 14.3764 88.8333 14.4159 88.9896 14.4015H89.7661V16.1271H88.9896C88.3037 16.1928 87.6164 16.0195 87.0411 15.636C86.8277 15.3882 86.6678 15.0978 86.5722 14.7837C86.4772 14.4695 86.4473 14.1386 86.4865 13.8122V1.70508Z" fill="black"/>
<path d="M89.7041 6.02637H91.7846L94.6417 13.546L97.6373 6.02637H99.7178L94.9258 17.9512C94.7816 18.3031 94.6196 18.6473 94.4404 18.9823C94.3177 19.2363 94.1614 19.4723 93.9758 19.6837C93.7702 19.923 93.5005 20.0961 93.1993 20.1818C92.8253 20.2624 92.4441 20.3001 92.0616 20.294H90.4671V18.5403H92.0616C92.3464 18.5403 92.5126 18.5403 92.5747 18.4492C92.7168 18.3134 92.8238 18.1449 92.8866 17.9582L93.7053 15.8959L89.7041 6.02637Z" fill="black"/>
<defs>
<linearGradient id="paint0_linear_976_428" x1="18.7477" y1="14.9764" x2="0.583267" y2="5.63762" gradientUnits="userSpaceOnUse">
<stop stop-color="#FF0000"/>
<stop offset="1" stop-color="#FF0000" stop-opacity="0"/>
</linearGradient>
<linearGradient id="paint1_linear_976_428" x1="19.3665" y1="5.49383" x2="1.55193" y2="17.6057" gradientUnits="userSpaceOnUse">
<stop stop-color="#FF0000"/>
<stop offset="1" stop-color="#FF0000" stop-opacity="0"/>
</linearGradient>
</defs>
</svg>
